STARTFONT 2.1
COMMENT
COMMENT Converted from OpenType font "..\ttf\ITC Avant Garde Gothic Medium.otf" by "otf2bdf.exe 3.0".
COMMENT
FONT -FreeType-ITC Avant Garde Gothic-Medium-R-Normal--35-250-100-100-P-168-ISO10646-1
SIZE 25 100 100
FONTBOUNDINGBOX 44 44 -3 -10
STARTPROPERTIES 19
FOUNDRY "FreeType"
FAMILY_NAME "ITC Avant Garde Gothic"
WEIGHT_NAME "Medium"
SLANT "R"
SETWIDTH_NAME "Normal"
ADD_STYLE_NAME ""
PIXEL_SIZE 35
POINT_SIZE 250
RESOLUTION_X 100
RESOLUTION_Y 100
SPACING "P"
AVERAGE_WIDTH 168
CHARSET_REGISTRY "ISO10646"
CHARSET_ENCODING "1"
FONT_ASCENT 34
FONT_DESCENT 8
COPYRIGHT "Copyright (c) 1991 Adobe Systems Incorporated.  All Rights Reserved.ITC Avant Garde Gothic is a registered trademark of International Typeface Corporation."
_OTF_FONTFILE "..\ttf\ITC Avant Garde Gothic Medium.otf"
_OTF_PSNAME "AvantGarde-Medium"
ENDPROPERTIES
CHARS 228
STARTCHAR 0020
ENCODING 32
SWIDTH 288 0
DWIDTH 10 0
BBX 0 0 0 0
BITMAP
ENDCHAR
STARTCHAR 0021
ENCODING 33
SWIDTH 288 0
DWIDTH 10 0
BBX 4 25 3 0
BITMAP
F0
F0
F0
F0
F0
F0
F0
F0
F0
F0
F0
F0
F0
F0
F0
F0
F0
F0
F0
00
00
F0
F0
F0
F0
ENDCHAR
STARTCHAR 0022
ENCODING 34
SWIDTH 316 0
DWIDTH 11 0
BBX 10 10 1 14
BITMAP
F3C0
F3C0
F3C0
F3C0
F3C0
F3C0
F3C0
F3C0
F3C0
F3C0
ENDCHAR
STARTCHAR 0023
ENCODING 35
SWIDTH 547 0
DWIDTH 19 0
BBX 17 24 1 0
BITMAP
070E00
070E00
070E00
070E00
071E00
071C00
071C00
7FFF80
7FFF80
7FFF80
0E1C00
0E3C00
0E3800
0E3800
FFFF00
FFFF00
FFFF00
1C3800
1C3800
1C7000
1C7000
1C7000
387000
387000
ENDCHAR
STARTCHAR 0024
ENCODING 36
SWIDTH 547 0
DWIDTH 19 0
BBX 15 31 2 -3
BITMAP
03C0
03C0
03C0
03C0
0FF0
1FF8
3FFC
3C3E
781E
781E
7800
7800
7C00
3F80
1FF0
0FF8
01FC
003E
001E
001E
F01E
F01E
F81E
7C3C
7FFC
3FF8
0FF0
03C0
03C0
03C0
03C0
ENDCHAR
STARTCHAR 0025
ENCODING 37
SWIDTH 835 0
DWIDTH 29 0
BBX 26 25 2 0
BITMAP
0F803800
3FE03000
7FF06000
78F06000
F078C000
F078C000
F0798000
F07B8000
78F30000
7FF60000
3FE60000
0F8C0000
000C0000
0018FC00
001BFF00
0037FF80
00678780
006F03C0
00CF03C0
00CF03C0
018F03C0
01878780
0307FF80
0203FF00
0600FC00
ENDCHAR
STARTCHAR 0026
ENCODING 38
SWIDTH 691 0
DWIDTH 24 0
BBX 23 25 1 0
BITMAP
01F000
07FC00
0FFE00
0FBE00
1E0F00
1E0F00
1E0F00
1E0F00
0F1F00
0FFE00
07FC78
0FF078
1FF0F0
3FF8F0
7C7DE0
F83FE0
F01FC0
F007C0
F007E0
F807F0
780FF8
7F7E7C
3FFC3E
1FF81C
07E008
ENDCHAR
STARTCHAR 0027
ENCODING 39
SWIDTH 230 0
DWIDTH 8 0
BBX 4 10 2 14
BITMAP
F0
F0
F0
F0
F0
F0
F0
F0
F0
F0
ENDCHAR
STARTCHAR 0028
ENCODING 40
SWIDTH 403 0
DWIDTH 14 0
BBX 11 34 2 -9
BITMAP
00C0
01C0
03C0
07C0
0F80
1F00
1E00
3E00
3C00
7800
7800
7800
F000
F000
F000
F000
F000
F000
F000
F000
7800
7800
7800
7C00
3C00
3E00
1F00
0F80
0FC0
07E0
03E0
01E0
0060
0020
ENDCHAR
STARTCHAR 0029
ENCODING 41
SWIDTH 403 0
DWIDTH 14 0
BBX 11 34 1 -9
BITMAP
8000
E000
F000
F800
FC00
7E00
1F00
1F00
0F80
0780
07C0
03C0
03C0
01E0
01E0
01E0
01E0
01E0
01E0
01E0
01E0
01E0
03C0
03C0
03C0
0780
0F80
0F00
1F00
3E00
7C00
7800
7000
6000
ENDCHAR
STARTCHAR 002A
ENCODING 42
SWIDTH 576 0
DWIDTH 20 0
BBX 13 12 3 12
BITMAP
0600
0600
0600
0600
F678
FFF8
1FC0
0F80
0F80
19C0
38E0
3060
ENDCHAR
STARTCHAR 002B
ENCODING 43
SWIDTH 604 0
DWIDTH 21 0
BBX 18 17 1 0
BITMAP
01E000
01E000
01E000
01E000
01E000
01E000
01E000
FFFFC0
FFFFC0
FFFFC0
01E000
01E000
01E000
01E000
01E000
01E000
01E000
ENDCHAR
STARTCHAR 002C
ENCODING 44
SWIDTH 288 0
DWIDTH 10 0
BBX 4 8 3 -4
BITMAP
F0
F0
F0
F0
70
70
E0
C0
ENDCHAR
STARTCHAR 002D
ENCODING 45
SWIDTH 288 0
DWIDTH 10 0
BBX 10 3 0 8
BITMAP
FFC0
FFC0
FFC0
ENDCHAR
STARTCHAR 002E
ENCODING 46
SWIDTH 288 0
DWIDTH 10 0
BBX 4 4 3 1
BITMAP
F0
F0
F0
F0
ENDCHAR
STARTCHAR 002F
ENCODING 47
SWIDTH 489 0
DWIDTH 17 0
BBX 14 29 1 -4
BITMAP
003C
0038
0078
0078
0070
00F0
00F0
00E0
01E0
01E0
01C0
03C0
03C0
0380
0780
0780
0700
0F00
0F00
1E00
1E00
1E00
3C00
3C00
3C00
7800
7800
7800
F000
ENDCHAR
STARTCHAR 0030
ENCODING 48
SWIDTH 547 0
DWIDTH 19 0
BBX 17 25 1 0
BITMAP
03F000
0FFC00
3FFE00
7E3F00
780F00
F80F80
F00780
F00780
F00780
F00780
F00780
F00780
F00780
F00780
F00780
F00780
F00780
F00780
F00780
F80F80
780F00
7E3F00
3FFE00
1FFC00
07E000
ENDCHAR
STARTCHAR 0031
ENCODING 49
SWIDTH 547 0
DWIDTH 19 0
BBX 8 25 5 0
BITMAP
FF
FF
FF
0F
0F
0F
0F
0F
0F
0F
0F
0F
0F
0F
0F
0F
0F
0F
0F
0F
0F
0F
0F
0F
0F
ENDCHAR
STARTCHAR 0032
ENCODING 50
SWIDTH 547 0
DWIDTH 19 0
BBX 17 25 1 0
BITMAP
03F000
0FFC00
3FFE00
3E3F00
780F00
780F80
F00780
F00780
F00780
000780
000F80
001F00
003E00
007E00
00FC00
01F800
03E000
07C000
0F8000
1F0000
3E0000
7C0000
FFFF80
FFFF80
FFFF80
ENDCHAR
STARTCHAR 0033
ENCODING 51
SWIDTH 547 0
DWIDTH 19 0
BBX 16 25 1 0
BITMAP
03E0
0FF8
1FFC
3E7C
3C1E
381E
001E
001E
003E
007C
01F8
01F8
01FC
003E
001E
000F
000F
F00F
F00F
F00F
781E
7E7E
3FFC
1FF8
07E0
ENDCHAR
STARTCHAR 0034
ENCODING 52
SWIDTH 547 0
DWIDTH 19 0
BBX 19 25 0 0
BITMAP
000F00
001F00
003F00
003F00
007F00
00FF00
00FF00
01EF00
01CF00
03CF00
078F00
078F00
0F0F00
1E0F00
1E0F00
3C0F00
780F00
780F00
FFFFE0
FFFFE0
FFFFE0
000F00
000F00
000F00
000F00
ENDCHAR
STARTCHAR 0035
ENCODING 53
SWIDTH 547 0
DWIDTH 19 0
BBX 18 25 1 0
BITMAP
1FFE00
1FFE00
1FFE00
1C0000
1C0000
1C0000
3C0000
3C0000
3FF000
3FFC00
3FFF00
3E1F80
780F80
0007C0
0003C0
0003C0
0003C0
F003C0
F003C0
780780
7C0F80
3F3F00
3FFE00
0FFC00
03F000
ENDCHAR
STARTCHAR 0036
ENCODING 54
SWIDTH 547 0
DWIDTH 19 0
BBX 18 25 1 0
BITMAP
007800
00F000
00F000
01E000
03C000
03C000
078000
0F8000
1FF800
1FFE00
3FFF00
3E1F80
7C0780
7807C0
F003C0
F003C0
F003C0
F003C0
F003C0
780780
7C0F80
3F3F00
1FFE00
0FFC00
03F000
ENDCHAR
STARTCHAR 0037
ENCODING 55
SWIDTH 547 0
DWIDTH 19 0
BBX 15 25 2 0
BITMAP
FFFE
FFFE
FFFE
001E
003C
003C
003C
0078
0078
00F0
00F0
01E0
01E0
01E0
03C0
03C0
0780
0780
0F00
0F00
1E00
1E00
1E00
3C00
3C00
ENDCHAR
STARTCHAR 0038
ENCODING 56
SWIDTH 547 0
DWIDTH 19 0
BBX 17 25 1 0
BITMAP
03E000
0FF800
1FFC00
3E3E00
7C1F00
780F00
780F00
780F00
7C1F00
3E3E00
3FFE00
1FFC00
3FFE00
7C3F00
780F00
F00780
F00780
F00780
F00780
F80F80
780F00
7E3F00
3FFE00
1FF800
07E000
ENDCHAR
STARTCHAR 0039
ENCODING 57
SWIDTH 547 0
DWIDTH 19 0
BBX 17 25 1 0
BITMAP
03F000
0FF800
1FFE00
3F7E00
7C1F00
780F00
F00780
F00780
F00780
F00780
F00780
F80F00
780F00
7E3F00
3FFE00
1FFC00
07FC00
007800
00F000
00F000
01E000
01E000
03C000
078000
078000
ENDCHAR
STARTCHAR 003A
ENCODING 58
SWIDTH 288 0
DWIDTH 10 0
BBX 4 19 3 0
BITMAP
F0
F0
F0
F0
00
00
00
00
00
00
00
00
00
00
00
F0
F0
F0
F0
ENDCHAR
STARTCHAR 003B
ENCODING 59
SWIDTH 288 0
DWIDTH 10 0
BBX 4 23 3 -5
BITMAP
F0
F0
F0
F0
00
00
00
00
00
00
00
00
00
00
00
F0
F0
F0
F0
70
70
E0
C0
ENDCHAR
STARTCHAR 003C
ENCODING 60
SWIDTH 604 0
DWIDTH 21 0
BBX 17 17 2 0
BITMAP
000380
000F80
003F80
00FF00
07F800
1FE000
7F8000
FC0000
F80000
FE0000
3FC000
0FF000
03FC00
00FF00
001F80
000780
000180
ENDCHAR
STARTCHAR 003D
ENCODING 61
SWIDTH 604 0
DWIDTH 21 0
BBX 17 11 2 3
BITMAP
FFFF80
FFFF80
FFFF80
000000
000000
000000
000000
000000
FFFF80
FFFF80
FFFF80
ENDCHAR
STARTCHAR 003E
ENCODING 62
SWIDTH 604 0
DWIDTH 21 0
BBX 17 18 2 0
BITMAP
800000
E00000
F80000
FF0000
3FC000
0FF000
01FE00
007F80
001F80
001F80
007F80
01FE00
07F800
3FC000
FF0000
FC0000
E00000
800000
ENDCHAR
STARTCHAR 003F
ENCODING 63
SWIDTH 518 0
DWIDTH 18 0
BBX 16 25 1 0
BITMAP
07E0
1FF8
3FFC
7FFE
781E
F01F
F00F
F00F
000F
001F
003E
007E
00FC
00F8
01F0
01E0
03C0
03C0
03C0
0000
0000
03C0
03C0
03C0
03C0
ENDCHAR
STARTCHAR 0040
ENCODING 64
SWIDTH 748 0
DWIDTH 26 0
BBX 26 25 0 0
BITMAP
007FC000
01FFF000
07FFFC00
0F803E00
1E000F00
3C000780
383E7380
707F7380
70FFE1C0
61E1E1C0
E1C0E1C0
E380E1C0
E380E1C0
E380C1C0
E380C380
6381C380
71C3C700
71FFFF00
38FEFC00
3C3C7800
1E000000
0F800600
07FFFE00
01FFF800
007FC000
ENDCHAR
STARTCHAR 0041
ENCODING 65
SWIDTH 691 0
DWIDTH 24 0
BBX 22 25 0 0
BITMAP
007800
007800
00FC00
00FC00
00FC00
01FE00
01CE00
01CE00
03CF00
03CF00
078780
078780
078780
0F03C0
0F03C0
0FFFC0
1FFFE0
1FFFE0
3C00F0
3C00F0
3C00F0
780078
780078
700038
F0003C
ENDCHAR
STARTCHAR 0042
ENCODING 66
SWIDTH 576 0
DWIDTH 20 0
BBX 16 25 3 0
BITMAP
FFC0
FFF0
FFF8
F1F8
F07C
F03C
F03C
F03C
F03C
F03C
F078
FFF0
FFF0
FFFC
F03E
F01F
F00F
F00F
F00F
F00F
F01E
F0FE
FFFC
FFF8
FFE0
ENDCHAR
STARTCHAR 0043
ENCODING 67
SWIDTH 777 0
DWIDTH 27 0
BBX 25 25 1 0
BITMAP
003F8000
01FFF000
07FFF800
0FF3FC00
1F803E00
3E001F00
3C000F80
78000000
78000000
F8000000
F0000000
F0000000
F0000000
F0000000
F0000000
F8000000
78000000
7C000000
3C000F80
3F001F00
1F803E00
0FF3FC00
07FFF800
01FFE000
003F8000
ENDCHAR
STARTCHAR 0044
ENCODING 68
SWIDTH 720 0
DWIDTH 25 0
BBX 22 25 2 0
BITMAP
FFF800
FFFF00
FFFF80
F03FC0
F007E0
F001F0
F000F8
F00078
F00078
F0007C
F0003C
F0003C
F0003C
F0003C
F0003C
F0003C
F00078
F00078
F000F8
F001F0
F003F0
F07FE0
FFFF80
FFFF00
FFF800
ENDCHAR
STARTCHAR 0045
ENCODING 69
SWIDTH 518 0
DWIDTH 18 0
BBX 14 25 2 0
BITMAP
FFFC
FFFC
FFFC
F000
F000
F000
F000
F000
F000
F000
F000
FFFC
FFFC
FFFC
F000
F000
F000
F000
F000
F000
F000
F000
FFFC
FFFC
FFFC
ENDCHAR
STARTCHAR 0046
ENCODING 70
SWIDTH 489 0
DWIDTH 17 0
BBX 13 25 2 0
BITMAP
FFF8
FFF8
FFF8
F000
F000
F000
F000
F000
F000
F000
F000
FFF8
FFF8
FFF8
F000
F000
F000
F000
F000
F000
F000
F000
F000
F000
F000
ENDCHAR
STARTCHAR 0047
ENCODING 71
SWIDTH 835 0
DWIDTH 29 0
BBX 26 25 1 0
BITMAP
003F8000
01FFF000
07FFF800
0FF3FC00
1F803E00
3E000F00
3C000000
7C000000
78000000
78000000
F0000000
F0000000
F0000000
F03FFFC0
F03FFFC0
F03FFFC0
780003C0
7C000780
7C000780
3E000F00
1F803E00
0FF1FC00
07FFF800
01FFE000
007F8000
ENDCHAR
STARTCHAR 0048
ENCODING 72
SWIDTH 662 0
DWIDTH 23 0
BBX 18 25 3 0
BITMAP
F003C0
F003C0
F003C0
F003C0
F003C0
F003C0
F003C0
F003C0
F003C0
F003C0
F003C0
FFFFC0
FFFFC0
FFFFC0
F003C0
F003C0
F003C0
F003C0
F003C0
F003C0
F003C0
F003C0
F003C0
F003C0
F003C0
ENDCHAR
STARTCHAR 0049
ENCODING 73
SWIDTH 259 0
DWIDTH 9 0
BBX 4 25 3 0
BITMAP
F0
F0
F0
F0
F0
F0
F0
F0
F0
F0
F0
F0
F0
F0
F0
F0
F0
F0
F0
F0
F0
F0
F0
F0
F0
ENDCHAR
STARTCHAR 004A
ENCODING 74
SWIDTH 489 0
DWIDTH 17 0
BBX 14 25 0 0
BITMAP
003C
003C
003C
003C
003C
003C
003C
003C
003C
003C
003C
003C
003C
003C
003C
003C
003C
003C
003C
003C
F07C
FDF8
7FF0
3FE0
0FC0
ENDCHAR
STARTCHAR 004B
ENCODING 75
SWIDTH 604 0
DWIDTH 21 0
BBX 18 25 3 0
BITMAP
F007C0
F00F80
F00F00
F01E00
F03E00
F07C00
F07800
F0F000
F1E000
F3E000
F3C000
F78000
FF0000
F78000
F3C000
F3E000
F1F000
F0F000
F07800
F07C00
F03E00
F01E00
F00F00
F00F80
F007C0
ENDCHAR
STARTCHAR 004C
ENCODING 76
SWIDTH 432 0
DWIDTH 15 0
BBX 13 25 3 0
BITMAP
F000
F000
F000
F000
F000
F000
F000
F000
F000
F000
F000
F000
F000
F000
F000
F000
F000
F000
F000
F000
F000
F000
FFF8
FFF8
FFF8
ENDCHAR
STARTCHAR 004D
ENCODING 77
SWIDTH 921 0
DWIDTH 32 0
BBX 27 25 3 0
BITMAP
FC0007E0
FE000FE0
FE000FE0
FE000FE0
FF001FE0
F7001DE0
F7803DE0
F7803DE0
F38039E0
F3C079E0
F1C071E0
F1E0F1E0
F1E0F1E0
F0E0E1E0
F0F1E1E0
F071C1E0
F071C1E0
F07BC1E0
F03B81E0
F03F81E0
F01F01E0
F01F01E0
F01F01E0
F00E01E0
F00E01E0
ENDCHAR
STARTCHAR 004E
ENCODING 78
SWIDTH 748 0
DWIDTH 26 0
BBX 20 25 3 0
BITMAP
F800F0
F800F0
FC00F0
FC00F0
FE00F0
FF00F0
FF00F0
F780F0
F3C0F0
F3C0F0
F1E0F0
F0E0F0
F0F0F0
F078F0
F078F0
F03CF0
F01CF0
F01EF0
F00FF0
F00FF0
F007F0
F003F0
F003F0
F001F0
F000F0
ENDCHAR
STARTCHAR 004F
ENCODING 79
SWIDTH 835 0
DWIDTH 29 0
BBX 27 25 1 0
BITMAP
003F8000
01FFF000
07FFFC00
0FF3FE00
1F803F00
3E000F80
3C000780
7C0007C0
780003C0
F80003E0
F00001E0
F00001E0
F00001E0
F00001E0
F00001E0
F80003E0
780003C0
7C0003C0
3C000780
3E000F80
1F803F00
0FF9FE00
07FFFC00
01FFF000
003F8000
ENDCHAR
STARTCHAR 0050
ENCODING 80
SWIDTH 547 0
DWIDTH 19 0
BBX 17 25 2 0
BITMAP
FFF000
FFFC00
FFFE00
F0FF00
F00F00
F00F80
F00780
F00780
F00780
F00780
F00F00
F0FF00
FFFE00
FFFC00
FFF000
F00000
F00000
F00000
F00000
F00000
F00000
F00000
F00000
F00000
F00000
ENDCHAR
STARTCHAR 0051
ENCODING 81
SWIDTH 835 0
DWIDTH 29 0
BBX 28 25 1 0
BITMAP
003F8000
01FFF000
03FFFC00
0FF1FE00
1F803F00
1F001F80
3E000F80
7C0007C0
780003C0
780003E0
F00001E0
F00001E0
F00001E0
F00001E0
F00001E0
F7F801E0
7FFF03C0
7FFFC3C0
7C0FF780
3E01FF80
1F807F00
0FF9FFC0
07FFFFF0
01FFF3F0
003F80F0
ENDCHAR
STARTCHAR 0052
ENCODING 82
SWIDTH 604 0
DWIDTH 21 0
BBX 17 25 2 0
BITMAP
FFF000
FFFC00
FFFE00
F0FF00
F01F00
F00F80
F00780
F00780
F00780
F00780
F00F80
F03F00
FFFF00
FFFE00
F7F800
F3C000
F3E000
F1E000
F0F000
F0F800
F07800
F03C00
F03E00
F01F00
F00F00
ENDCHAR
STARTCHAR 0053
ENCODING 83
SWIDTH 489 0
DWIDTH 17 0
BBX 16 25 1 0
BITMAP
07E0
0FF8
1FFC
3E7C
7C3E
781E
781E
7800
7C00
3E00
3FC0
1FF8
07FC
01FE
003E
001F
000F
F00F
F00F
F80F
781E
7E7E
3FFC
1FF8
07E0
ENDCHAR
STARTCHAR 0054
ENCODING 84
SWIDTH 403 0
DWIDTH 14 0
BBX 14 25 0 0
BITMAP
FFFC
FFFC
FFFC
0780
0780
0780
0780
0780
0780
0780
0780
0780
0780
0780
0780
0780
0780
0780
0780
0780
0780
0780
0780
0780
0780
ENDCHAR
STARTCHAR 0055
ENCODING 85
SWIDTH 633 0
DWIDTH 22 0
BBX 18 25 2 0
BITMAP
F003C0
F003C0
F003C0
F003C0
F003C0
F003C0
F003C0
F003C0
F003C0
F003C0
F003C0
F003C0
F003C0
F003C0
F003C0
F003C0
F003C0
F003C0
F003C0
F807C0
7C0F80
7F3F80
3FFF00
0FFC00
03F000
ENDCHAR
STARTCHAR 0056
ENCODING 86
SWIDTH 691 0
DWIDTH 24 0
BBX 22 25 0 0
BITMAP
F0003C
700038
780078
780078
3C00F0
3C00F0
1C00E0
1E01E0
1E01E0
0F01C0
0F03C0
070380
078780
078780
038700
03CF00
01CE00
01EE00
01FE00
00FC00
00FC00
007800
007800
007800
003000
ENDCHAR
STARTCHAR 0057
ENCODING 87
SWIDTH 892 0
DWIDTH 31 0
BBX 30 25 1 0
BITMAP
F003803C
F007803C
78078038
78078078
780FC078
380FC070
3C0FC070
3C0FC0F0
3C1FE0F0
1C1CE0E0
1E1CE1E0
1E1CE1E0
0E3CF1C0
0E3871C0
0F3873C0
0F3873C0
07787B80
07703B80
07F03F80
03F03F00
03F03F00
03E01F00
03E01F00
01E01E00
01C01E00
ENDCHAR
STARTCHAR 0058
ENCODING 88
SWIDTH 662 0
DWIDTH 23 0
BBX 21 25 0 0
BITMAP
F800F8
7800F0
3C01E0
3E03E0
1E03C0
0F0780
0F8F80
078F00
03DE00
03FE00
01FC00
00F800
00F800
00F800
01FC00
03FE00
03DE00
078F00
0F0F80
0F0780
1E03C0
3E03E0
3C01E0
7800F0
F800F8
ENDCHAR
STARTCHAR 0059
ENCODING 89
SWIDTH 604 0
DWIDTH 21 0
BBX 20 25 0 0
BITMAP
F801F0
7801E0
7C03E0
3C03C0
3E03C0
1E0780
1E0780
0F0F00
0F0F00
079E00
079E00
03FC00
03FC00
01F800
01F800
00F000
00F000
00F000
00F000
00F000
00F000
00F000
00F000
00F000
00F000
ENDCHAR
STARTCHAR 005A
ENCODING 90
SWIDTH 460 0
DWIDTH 16 0
BBX 15 25 0 0
BITMAP
7FFE
7FFE
7FFE
001E
003C
007C
0078
00F8
00F0
01E0
03E0
03C0
07C0
0780
0F00
0F00
1E00
3E00
3C00
7800
7800
F000
FFFE
FFFE
FFFE
ENDCHAR
STARTCHAR 005B
ENCODING 91
SWIDTH 403 0
DWIDTH 14 0
BBX 7 34 4 -10
BITMAP
02
0E
1E
3E
3E
7C
78
F0
F0
F0
F0
F0
F0
F0
F0
F0
F0
F0
F0
F0
F0
F0
F0
F0
F0
F0
F0
F8
78
7C
3E
1E
0E
06
ENDCHAR
STARTCHAR 005C
ENCODING 92
SWIDTH 489 0
DWIDTH 17 0
BBX 14 29 2 -4
BITMAP
F000
7800
7800
3800
3C00
3C00
1C00
1E00
1E00
0E00
0F00
0F00
0700
0780
0780
0380
03C0
03C0
01E0
01E0
01E0
00F0
00F0
00F0
0078
0078
0078
003C
003C
ENDCHAR
STARTCHAR 005D
ENCODING 93
SWIDTH 403 0
DWIDTH 14 0
BBX 7 34 3 -10
BITMAP
80
E0
F0
F8
FC
7C
3E
1E
1E
1E
1E
1E
1E
1E
1E
1E
1E
1E
1E
1E
1E
1E
1E
1E
1E
1E
1E
3E
3C
7C
F8
F0
E0
C0
ENDCHAR
STARTCHAR 005E
ENCODING 94
SWIDTH 604 0
DWIDTH 21 0
BBX 16 13 2 11
BITMAP
03C0
03C0
07E0
07E0
0FF0
0E70
1E78
1C38
3C3C
381C
781E
700E
F00F
ENDCHAR
STARTCHAR 005F
ENCODING 95
SWIDTH 489 0
DWIDTH 17 0
BBX 17 2 0 -4
BITMAP
FFFF80
FFFF80
ENDCHAR
STARTCHAR 0060
ENCODING 96
SWIDTH 547 0
DWIDTH 19 0
BBX 9 7 4 20
BITMAP
4000
7000
FC00
7F00
1F80
0700
0100
ENDCHAR
STARTCHAR 0061
ENCODING 97
SWIDTH 691 0
DWIDTH 24 0
BBX 21 19 1 0
BITMAP
01FC78
07FE78
1FFF78
3F8FF8
3E03F8
7800F8
7800F8
F00078
F00078
F00078
F00078
F00078
F800F8
7C00F8
7E03F8
3F8FF8
1FFF78
07FE78
01F878
ENDCHAR
STARTCHAR 0062
ENCODING 98
SWIDTH 691 0
DWIDTH 24 0
BBX 21 25 2 0
BITMAP
F00000
F00000
F00000
F00000
F00000
F00000
F0FC00
F3FF00
F7FFC0
FF8FE0
FE03F0
FC01F0
F800F8
F00078
F00078
F00078
F00078
F00078
F800F8
FC00F0
FE03F0
FF8FE0
F7FFC0
F3FF00
F0FC00
ENDCHAR
STARTCHAR 0063
ENCODING 99
SWIDTH 633 0
DWIDTH 22 0
BBX 19 19 1 0
BITMAP
01F800
07FF00
1FFF80
3F0FC0
3C03E0
7801E0
7801E0
F00000
F00000
F00000
F00000
F00000
7801E0
7801E0
7C03C0
3F0FC0
1FFF80
0FFE00
01F800
ENDCHAR
STARTCHAR 0064
ENCODING 100
SWIDTH 691 0
DWIDTH 24 0
BBX 21 25 1 0
BITMAP
000078
000078
000078
000078
000078
000078
01FC78
07FF78
1FFFF8
3F8FF8
3E03F8
7C00F8
7800F8
F00078
F00078
F00078
F00078
F00078
F800F8
7C00F8
7E03F8
3F8FF8
1FFF78
07FE78
01F878
ENDCHAR
STARTCHAR 0065
ENCODING 101
SWIDTH 633 0
DWIDTH 22 0
BBX 20 19 1 0
BITMAP
01F800
07FF00
1FFF80
3F9FC0
7C03E0
7801E0
F000F0
F000F0
FFFFF0
FFFFF0
FFFFF0
F00000
780000
7801E0
3C03C0
3F8FC0
1FFF80
07FE00
01F800
ENDCHAR
STARTCHAR 0066
ENCODING 102
SWIDTH 288 0
DWIDTH 10 0
BBX 9 25 0 0
BITMAP
0780
0F80
1F80
3F00
3C00
3C00
FF80
FF80
FF80
3C00
3C00
3C00
3C00
3C00
3C00
3C00
3C00
3C00
3C00
3C00
3C00
3C00
3C00
3C00
3C00
ENDCHAR
STARTCHAR 0067
ENCODING 103
SWIDTH 691 0
DWIDTH 24 0
BBX 21 26 1 -7
BITMAP
01FC78
07FF78
1FFFF8
3F8FF8
3E03F8
7C00F8
7800F8
F00078
F00078
F00078
F00078
F00078
7800F8
7C01F8
3E03F8
3F8FF8
1FFFF8
07FE78
01F878
0000F8
7800F0
3C01F0
3F07E0
1FFFC0
07FF80
01FC00
ENDCHAR
STARTCHAR 0068
ENCODING 104
SWIDTH 633 0
DWIDTH 22 0
BBX 17 25 2 0
BITMAP
F00000
F00000
F00000
F00000
F00000
F00000
F3F000
F7FC00
FFFE00
FE3F00
F80F00
F80F80
F00780
F00780
F00780
F00780
F00780
F00780
F00780
F00780
F00780
F00780
F00780
F00780
F00780
ENDCHAR
STARTCHAR 0069
ENCODING 105
SWIDTH 230 0
DWIDTH 8 0
BBX 4 25 2 0
BITMAP
F0
F0
F0
F0
00
00
F0
F0
F0
F0
F0
F0
F0
F0
F0
F0
F0
F0
F0
F0
F0
F0
F0
F0
F0
ENDCHAR
STARTCHAR 006A
ENCODING 106
SWIDTH 259 0
DWIDTH 9 0
BBX 6 32 1 -8
BITMAP
3C
3C
3C
3C
00
00
3C
3C
3C
3C
3C
3C
3C
3C
3C
3C
3C
3C
3C
3C
3C
3C
3C
3C
3C
3C
3C
3C
FC
F8
F0
E0
ENDCHAR
STARTCHAR 006B
ENCODING 107
SWIDTH 547 0
DWIDTH 19 0
BBX 16 25 3 0
BITMAP
F000
F000
F000
F000
F000
F000
F03E
F03C
F078
F0F0
F1E0
F1E0
F3C0
F780
FF00
FF80
F780
F3C0
F1E0
F1F0
F0F8
F078
F03C
F03E
F01F
ENDCHAR
STARTCHAR 006C
ENCODING 108
SWIDTH 230 0
DWIDTH 8 0
BBX 4 25 2 0
BITMAP
F0
F0
F0
F0
F0
F0
F0
F0
F0
F0
F0
F0
F0
F0
F0
F0
F0
F0
F0
F0
F0
F0
F0
F0
F0
ENDCHAR
STARTCHAR 006D
ENCODING 109
SWIDTH 979 0
DWIDTH 34 0
BBX 29 19 2 0
BITMAP
F3F03F80
F7FCFFC0
FFFEFFE0
FE3FF3F0
F80FC0F8
F8078078
F0078078
F0078078
F0078078
F0078078
F0078078
F0078078
F0078078
F0078078
F0078078
F0078078
F0078078
F0078078
F0078078
ENDCHAR
STARTCHAR 006E
ENCODING 110
SWIDTH 633 0
DWIDTH 22 0
BBX 17 19 2 0
BITMAP
F3F000
F7FC00
FFFE00
FE3F00
F80F00
F80F80
F00780
F00780
F00780
F00780
F00780
F00780
F00780
F00780
F00780
F00780
F00780
F00780
F00780
ENDCHAR
STARTCHAR 006F
ENCODING 111
SWIDTH 662 0
DWIDTH 23 0
BBX 21 19 1 0
BITMAP
01FC00
07FF00
1FFFC0
3F8FE0
3E03F0
7C01F0
7800F8
F00078
F00078
F00078
F00078
F00078
7800F0
7C00F0
3E03E0
3F8FE0
1FFFC0
07FF00
01FC00
ENDCHAR
STARTCHAR 0070
ENCODING 112
SWIDTH 691 0
DWIDTH 24 0
BBX 21 25 2 -6
BITMAP
F0FC00
F3FF80
F7FFC0
FF8FE0
FE03F0
F801F0
F800F0
F00078
F00078
F00078
F00078
F00078
F800F8
FC00F0
FE01F0
FF8FE0
F7FFC0
F3FF00
F0FC00
F00000
F00000
F00000
F00000
F00000
F00000
ENDCHAR
STARTCHAR 0071
ENCODING 113
SWIDTH 691 0
DWIDTH 24 0
BBX 21 25 1 -6
BITMAP
01F878
07FE78
1FFFF8
3F8FF8
3E03F8
7800F8
7800F8
F00078
F00078
F00078
F00078
F00078
7800F8
7C00F8
3E01F8
3F8FF8
1FFF78
07FE78
01F878
000078
000078
000078
000078
000078
000078
ENDCHAR
STARTCHAR 0072
ENCODING 114
SWIDTH 316 0
DWIDTH 11 0
BBX 9 19 2 0
BITMAP
F380
FF80
FF80
FF80
FC00
F800
F000
F000
F000
F000
F000
F000
F000
F000
F000
F000
F000
F000
F000
ENDCHAR
STARTCHAR 0073
ENCODING 115
SWIDTH 432 0
DWIDTH 15 0
BBX 14 19 1 0
BITMAP
07C0
1FE0
3FF0
7CF8
7878
7800
7C00
7F00
3FE0
0FF0
03F8
007C
003C
F03C
F83C
7C7C
7FF8
3FF0
0FC0
ENDCHAR
STARTCHAR 0074
ENCODING 116
SWIDTH 288 0
DWIDTH 10 0
BBX 10 25 0 0
BITMAP
1E00
1E00
1E00
1E00
1E00
1E00
FFC0
FFC0
FFC0
1E00
1E00
1E00
1E00
1E00
1E00
1E00
1E00
1E00
1E00
1E00
1E00
1E00
1E00
1E00
1E00
ENDCHAR
STARTCHAR 0075
ENCODING 117
SWIDTH 633 0
DWIDTH 22 0
BBX 17 19 2 0
BITMAP
F00780
F00780
F00780
F00780
F00780
F00780
F00780
F00780
F00780
F00780
F00780
F00780
F00780
F80F80
780F80
7E3F80
3FFF80
1FF780
07E780
ENDCHAR
STARTCHAR 0076
ENCODING 118
SWIDTH 547 0
DWIDTH 19 0
BBX 17 19 0 0
BITMAP
F00780
700700
780F00
780F00
380E00
3C1E00
3C1E00
1C1C00
1E3C00
0E3800
0E3800
0F7800
077000
07F000
03E000
03E000
03E000
01C000
01C000
ENDCHAR
STARTCHAR 0077
ENCODING 119
SWIDTH 806 0
DWIDTH 28 0
BBX 26 19 0 0
BITMAP
F00C03C0
701E0380
781E0780
781E0780
383F0700
3C3F0F00
3C3F0F00
1C3F8E00
1E739E00
1E739E00
0E739C00
0FE1FC00
07E1F800
07E1F800
07C0F800
03C0F000
03C0F000
03807000
01806000
ENDCHAR
STARTCHAR 0078
ENCODING 120
SWIDTH 518 0
DWIDTH 18 0
BBX 17 19 0 0
BITMAP
780F00
781F00
3C1E00
1E3C00
1E3C00
0F7800
07F000
07F000
03E000
03E000
03E000
07F000
0F7800
0F7800
1E3C00
3C1E00
3C1E00
780F00
F00780
ENDCHAR
STARTCHAR 0079
ENCODING 121
SWIDTH 576 0
DWIDTH 20 0
BBX 19 25 0 -6
BITMAP
F001E0
7001C0
7803C0
7803C0
3C0780
3C0780
1C0700
1E0F00
1E0E00
0F1E00
0F1E00
071C00
07BC00
03B800
03F800
03F000
01F000
01F000
00E000
01E000
01C000
03C000
03C000
078000
078000
ENDCHAR
STARTCHAR 007A
ENCODING 122
SWIDTH 403 0
DWIDTH 14 0
BBX 14 19 0 0
BITMAP
7FF8
7FF8
7FF8
0078
00F8
00F0
01E0
03C0
03C0
0780
0F00
1F00
1E00
3C00
7800
7800
FFFC
FFFC
FFFC
ENDCHAR
STARTCHAR 007B
ENCODING 123
SWIDTH 345 0
DWIDTH 12 0
BBX 11 32 0 -7
BITMAP
01E0
07E0
0FE0
0F00
0F00
0F00
0F00
0F00
0F00
0F00
0F00
0F00
0F00
3F00
FE00
F000
FE00
3F00
1F00
0F00
0F00
0F00
0F00
0F00
0F00
0F00
0F00
0F00
0F80
07E0
07E0
01E0
ENDCHAR
STARTCHAR 007C
ENCODING 124
SWIDTH 547 0
DWIDTH 19 0
BBX 4 29 8 -4
BITMAP
F0
F0
F0
F0
F0
F0
F0
F0
F0
F0
F0
F0
F0
F0
F0
F0
F0
F0
F0
F0
F0
F0
F0
F0
F0
F0
F0
F0
F0
ENDCHAR
STARTCHAR 007D
ENCODING 125
SWIDTH 345 0
DWIDTH 12 0
BBX 11 32 1 -7
BITMAP
F000
FC00
FE00
1E00
1E00
1E00
1E00
1E00
1E00
1E00
1E00
1E00
1F00
1F80
0FE0
01E0
0FE0
0F80
1E00
1E00
1E00
1E00
1E00
1E00
1E00
1E00
1E00
1E00
1E00
FC00
FC00
F000
ENDCHAR
STARTCHAR 007E
ENCODING 126
SWIDTH 604 0
DWIDTH 21 0
BBX 16 6 2 6
BITMAP
3E02
7F86
FFFF
E3FE
40FC
0038
ENDCHAR
STARTCHAR 00A1
ENCODING 161
SWIDTH 288 0
DWIDTH 10 0
BBX 4 25 3 -6
BITMAP
F0
F0
F0
F0
00
00
F0
F0
F0
F0
F0
F0
F0
F0
F0
F0
F0
F0
F0
F0
F0
F0
F0
F0
F0
ENDCHAR
STARTCHAR 00A2
ENCODING 162
SWIDTH 547 0
DWIDTH 19 0
BBX 17 23 1 2
BITMAP
01E000
01E000
01E000
03F000
0FFC00
1FFE00
3FFF00
7C0F80
F80780
F00000
F00000
F00000
F00000
F80000
780780
7E0F80
3FFF00
1FFE00
0FFC00
01E000
01E000
01E000
01E000
ENDCHAR
STARTCHAR 00A3
ENCODING 163
SWIDTH 547 0
DWIDTH 19 0
BBX 19 25 0 0
BITMAP
01F800
0FFE00
1FFF00
3F1F80
3C0780
7C03C0
780000
780000
780000
780000
3C0000
FFF800
FFF800
FFF800
07C000
03C000
01E1E0
01E1E0
01E1E0
01E1E0
01E3E0
01E7C0
3FFF80
3FFF00
3FFC00
ENDCHAR
STARTCHAR 00A4
ENCODING 164
SWIDTH 547 0
DWIDTH 19 0
BBX 18 16 1 3
BITMAP
600180
F3F3C0
7FFF80
3FFF00
3E1F00
3C0F80
780780
780780
780780
780780
3C0F00
3E1F00
3FFF00
7FFFC0
F3F3C0
600180
ENDCHAR
STARTCHAR 00A5
ENCODING 165
SWIDTH 547 0
DWIDTH 19 0
BBX 18 25 1 0
BITMAP
F001C0
F003C0
780780
780780
3C0F00
1E1E00
1E1E00
0F3C00
FF3FC0
FFFFC0
FFFFC0
03F000
03F000
01E000
01E000
FFFFC0
FFFFC0
FFFFC0
01E000
01E000
01E000
01E000
01E000
01E000
01E000
ENDCHAR
STARTCHAR 00A6
ENCODING 166
SWIDTH 547 0
DWIDTH 19 0
BBX 4 28 8 -3
BITMAP
F0
F0
F0
F0
F0
F0
F0
F0
F0
F0
F0
00
00
00
00
00
F0
F0
F0
F0
F0
F0
F0
F0
F0
F0
F0
F0
ENDCHAR
STARTCHAR 00A7
ENCODING 167
SWIDTH 576 0
DWIDTH 20 0
BBX 18 33 1 -8
BITMAP
03F000
0FFC00
1FFE00
1FBF00
3C0F00
3C0F00
3C0000
3E0000
1F8000
1FE000
3FF800
79FE00
F07F00
F01F80
F007C0
F803C0
FC03C0
7F03C0
3FC780
0FFF80
03FF00
00FE00
003F00
000F80
000780
780780
780780
7C0780
3C0F00
3E1F00
1FFE00
0FFC00
03F000
ENDCHAR
STARTCHAR 00A8
ENCODING 168
SWIDTH 547 0
DWIDTH 19 0
BBX 9 4 5 22
BITMAP
F780
F780
F780
F780
ENDCHAR
STARTCHAR 00A9
ENCODING 169
SWIDTH 806 0
DWIDTH 28 0
BBX 26 25 1 0
BITMAP
007F0000
01FFE000
07FFF800
0F807C00
1E001E00
3C3F0F00
38FFC700
71E1E380
7380E380
E38061C0
E70001C0
E70001C0
E70001C0
E70001C0
E70001C0
E3806180
7380E380
71E1C380
38FF8700
3C3F0F00
1E001E00
0F807C00
07FFF000
01FFE000
007F0000
ENDCHAR
STARTCHAR 00AA
ENCODING 170
SWIDTH 374 0
DWIDTH 13 0
BBX 12 10 0 15
BITMAP
1F70
3FF0
7FF0
F0F0
E070
E070
F0F0
7FF0
3FF0
1F70
ENDCHAR
STARTCHAR 00AB
ENCODING 171
SWIDTH 374 0
DWIDTH 13 0
BBX 11 13 1 4
BITMAP
0820
1860
38E0
79E0
F3C0
E380
C300
E380
F3C0
79E0
38E0
1860
0820
ENDCHAR
STARTCHAR 00AC
ENCODING 172
SWIDTH 604 0
DWIDTH 21 0
BBX 18 10 1 4
BITMAP
FFFFC0
FFFFC0
FFFFC0
0003C0
0003C0
0003C0
0003C0
0003C0
0003C0
0003C0
ENDCHAR
STARTCHAR 00AE
ENCODING 174
SWIDTH 806 0
DWIDTH 28 0
BBX 26 25 1 0
BITMAP
007F8000
01FFE000
07FFF800
0F807C00
1E001E00
3DFF8F00
39FFC700
71C1E380
71C0E380
E1C0E1C0
E1C0E1C0
E1C1C1C0
E1FF81C0
E1FFC1C0
E1C1E1C0
E1C0E1C0
71C0E380
71C0E380
39C0E700
3DC0EF00
1E001E00
0F807C00
07FFF800
01FFE000
007F0000
ENDCHAR
STARTCHAR 00AF
ENCODING 175
SWIDTH 547 0
DWIDTH 19 0
BBX 12 3 3 23
BITMAP
FFF0
FFF0
FFF0
ENDCHAR
STARTCHAR 00B0
ENCODING 176
SWIDTH 403 0
DWIDTH 14 0
BBX 10 9 2 15
BITMAP
1E00
7F80
E1C0
C0C0
C0C0
C0C0
E180
7F80
1E00
ENDCHAR
STARTCHAR 00B1
ENCODING 177
SWIDTH 604 0
DWIDTH 21 0
BBX 18 21 1 -2
BITMAP
01E000
01E000
01E000
01E000
01E000
01E000
FFFFC0
FFFFC0
FFFFC0
01E000
01E000
01E000
01E000
01E000
01E000
000000
000000
000000
FFFFC0
FFFFC0
FFFFC0
ENDCHAR
STARTCHAR 00B2
ENCODING 178
SWIDTH 345 0
DWIDTH 12 0
BBX 10 15 1 10
BITMAP
1E00
7F80
7F80
E1C0
E1C0
E1C0
03C0
0780
0F00
1E00
3C00
7800
FFC0
FFC0
FFC0
ENDCHAR
STARTCHAR 00B3
ENCODING 179
SWIDTH 345 0
DWIDTH 12 0
BBX 11 15 0 10
BITMAP
1F00
3F80
7FC0
71C0
01C0
07C0
0780
07C0
01E0
00E0
E0E0
70E0
7FC0
3F80
1F00
ENDCHAR
STARTCHAR 00B4
ENCODING 180
SWIDTH 547 0
DWIDTH 19 0
BBX 9 7 6 21
BITMAP
0100
0700
1F80
7F00
FC00
7000
4000
ENDCHAR
STARTCHAR 00B5
ENCODING 181
SWIDTH 633 0
DWIDTH 22 0
BBX 16 25 3 -6
BITMAP
F00F
F00F
F00F
F00F
F00F
F00F
F00F
F00F
F00F
F00F
F00F
F00F
F00F
F81F
F81F
FE7F
FFFF
FFEF
F7CF
F000
F000
F000
F000
F000
F000
ENDCHAR
STARTCHAR 00B6
ENCODING 182
SWIDTH 633 0
DWIDTH 22 0
BBX 18 31 1 -7
BITMAP
0FFFC0
3FFFC0
7FFFC0
FFE3C0
FFE3C0
FFE3C0
FFE3C0
FFE3C0
FFE3C0
FFE3C0
7FE3C0
3FE3C0
01E3C0
01E3C0
01E3C0
01E3C0
01E3C0
01E3C0
01E3C0
01E3C0
01E3C0
01E3C0
01E3C0
01E3C0
01E3C0
01E3C0
01E3C0
01E3C0
01E3C0
01E3C0
01E3C0
ENDCHAR
STARTCHAR 00B7
ENCODING 183
SWIDTH 288 0
DWIDTH 10 0
BBX 4 3 3 7
BITMAP
F0
F0
F0
ENDCHAR
STARTCHAR 00B8
ENCODING 184
SWIDTH 547 0
DWIDTH 19 0
BBX 6 9 7 -8
BITMAP
60
60
70
7C
0C
0C
CC
F8
70
ENDCHAR
STARTCHAR 00B9
ENCODING 185
SWIDTH 345 0
DWIDTH 12 0
BBX 5 15 3 10
BITMAP
F8
F8
F8
38
38
38
38
38
38
38
38
38
38
38
38
ENDCHAR
STARTCHAR 00BA
ENCODING 186
SWIDTH 374 0
DWIDTH 13 0
BBX 11 10 1 15
BITMAP
1F00
3F80
7FC0
E0E0
E0E0
E0E0
E0E0
7FC0
3F80
1F00
ENDCHAR
STARTCHAR 00BB
ENCODING 187
SWIDTH 374 0
DWIDTH 13 0
BBX 11 12 1 5
BITMAP
8200
C300
F3C0
FBE0
79E0
1860
38E0
79E0
F3C0
E380
C300
8200
ENDCHAR
STARTCHAR 00BC
ENCODING 188
SWIDTH 691 0
DWIDTH 24 0
BBX 22 25 1 0
BITMAP
F80380
F80300
F80700
380600
380600
380E00
380C00
381C00
381800
383800
383030
383070
3870F0
3860F0
38E1F0
00C3B0
01C330
018730
018630
038E30
031FFC
071FFC
061FFC
0E0030
0C0030
ENDCHAR
STARTCHAR 00BD
ENCODING 189
SWIDTH 720 0
DWIDTH 25 0
BBX 23 25 1 0
BITMAP
F80300
F80700
F80600
380600
380E00
380C00
381C00
381800
383800
3830E0
3871F8
3863FC
38E79C
38E70E
38C70E
01C00E
01801C
03803C
030078
0700F0
0601E0
0E03C0
0C07FE
1C07FE
1C07FE
ENDCHAR
STARTCHAR 00BE
ENCODING 190
SWIDTH 777 0
DWIDTH 27 0
BBX 26 25 0 0
BITMAP
1F003800
3F803000
7FC07000
71C06000
01C0E000
07C0C000
0781C000
07C18000
01E38000
00E38000
E0E30700
70E70700
7FC60F00
3F8E1F00
1F0C1B00
001C3B00
00183300
00387300
0030E300
0070C300
0071FFC0
0061FFC0
00E1FFC0
00C00300
01C00300
ENDCHAR
STARTCHAR 00BF
ENCODING 191
SWIDTH 518 0
DWIDTH 18 0
BBX 16 26 1 -7
BITMAP
03C0
03C0
03C0
03C0
0000
0000
03C0
03C0
03C0
07C0
0780
0F80
1F00
3E00
7C00
7800
F800
F000
F000
F00F
F00F
781F
7C3E
3FFC
1FF8
07E0
ENDCHAR
STARTCHAR 00C0
ENCODING 192
SWIDTH 691 0
DWIDTH 24 0
BBX 22 33 0 1
BITMAP
010000
01C000
03F000
00FC00
007E00
001C00
000400
000000
007800
007800
00FC00
00FC00
00FC00
01FE00
01CE00
01CE00
03CF00
03CF00
078780
078780
078780
0F03C0
0F03C0
0FFFC0
1FFFE0
1FFFE0
3C00F0
3C00F0
3C00F0
780078
780078
700038
F0003C
ENDCHAR
STARTCHAR 00C1
ENCODING 193
SWIDTH 691 0
DWIDTH 24 0
BBX 22 33 0 0
BITMAP
000200
000E00
003F00
007E00
01F800
00E000
008000
000000
007800
007800
00FC00
00FC00
00FC00
01FE00
01DE00
01CE00
03CF00
03CF00
078780
078780
078780
0F03C0
0F03C0
0FFFC0
1FFFE0
1FFFE0
3C01F0
3C00F0
3C00F0
780078
780078
700078
F0003C
ENDCHAR
STARTCHAR 00C2
ENCODING 194
SWIDTH 691 0
DWIDTH 24 0
BBX 22 32 0 0
BITMAP
007C00
00FE00
01FF00
03CF80
0787C0
000000
000000
007800
007C00
007C00
00FC00
00FE00
01FE00
01EE00
01CF00
03CF00
03C700
038780
078780
078380
0F03C0
0F03C0
0FFFE0
1FFFE0
1FFFE0
3C00F0
3C0070
3C0070
780078
780038
780038
F0003C
ENDCHAR
STARTCHAR 00C3
ENCODING 195
SWIDTH 691 0
DWIDTH 24 0
BBX 22 31 0 0
BITMAP
03F300
07FF80
021E00
000000
000000
000000
007800
007800
00FC00
00FC00
00FC00
01FE00
01DE00
01CE00
03CF00
03CF00
078780
078780
078780
0F03C0
0F03C0
0FFFC0
1FFFE0
1FFFE0
3C00F0
3C00F0
3C00F0
780078
780078
700078
F0003C
ENDCHAR
STARTCHAR 00C4
ENCODING 196
SWIDTH 691 0
DWIDTH 24 0
BBX 22 31 0 0
BITMAP
01EF00
01EF00
01EF00
01EF00
000000
000000
003800
007800
007C00
007C00
00FE00
00EE00
01EE00
01EF00
01C700
03C700
038780
078380
078380
0703C0
0F01C0
0FFFE0
1FFFE0
1FFFE0
1E00F0
3C0070
3C0070
780078
780038
780038
F0003C
ENDCHAR
STARTCHAR 00C5
ENCODING 197
SWIDTH 691 0
DWIDTH 24 0
BBX 22 34 0 0
BITMAP
007800
00FC00
01CE00
018600
018600
01CE00
00FC00
007800
000000
007800
007800
00FC00
00FC00
01FE00
01FE00
01CE00
03CF00
03CF00
03C700
078780
078780
078380
0F03C0
0F03C0
1FFFE0
1FFFE0
1FFFE0
3C00F0
3C00F0
380070
780078
780078
700038
F0003C
ENDCHAR
STARTCHAR 00C6
ENCODING 198
SWIDTH 921 0
DWIDTH 32 0
BBX 30 25 0 0
BITMAP
0000FFFC
0000FFFC
0001FFFC
0003F800
0003F800
0007F800
000F7800
000F7800
001E7800
003C7800
003C7800
00787FFC
00F87FFC
00F07FFC
01E07800
03FFF800
03FFF800
07FFF800
0F007800
1F007800
1E007800
3C007800
7C007FFC
78007FFC
F0007FFC
ENDCHAR
STARTCHAR 00C7
ENCODING 199
SWIDTH 777 0
DWIDTH 27 0
BBX 25 34 1 -9
BITMAP
003F8000
01FFF000
07FFF800
0FF3FC00
1F803E00
3E001F00
3C000F80
78000000
78000000
F8000000
F0000000
F0000000
F0000000
F0000000
F0000000
F8000000
78000000
7C000000
3C000F80
3E001F00
1F803E00
0FF3FC00
07FFF800
01FFE000
003F8000
00180000
00180000
001E0000
001F0000
00030000
00030000
00330000
003E0000
001C0000
ENDCHAR
STARTCHAR 00C8
ENCODING 200
SWIDTH 518 0
DWIDTH 18 0
BBX 14 33 2 1
BITMAP
1800
3C00
3F00
0FC0
03E0
01C0
0000
0000
FFFC
FFFC
FFFC
F000
F000
F000
F000
F000
F000
F000
F000
FFFC
FFFC
FFFC
F000
F000
F000
F000
F000
F000
F000
F000
FFFC
FFFC
FFFC
ENDCHAR
STARTCHAR 00C9
ENCODING 201
SWIDTH 518 0
DWIDTH 18 0
BBX 14 34 2 0
BITMAP
0020
00E0
03F0
07E0
1F80
0E00
0800
0000
0000
FFFC
FFFC
FFFC
F000
F000
F000
F000
F000
F000
F000
F000
FFFC
FFFC
FFFC
F000
F000
F000
F000
F000
F000
F000
F000
FFFC
FFFC
FFFC
ENDCHAR
STARTCHAR 00CA
ENCODING 202
SWIDTH 518 0
DWIDTH 18 0
BBX 13 32 2 0
BITMAP
0780
0FC0
1FE0
3CF0
7878
0000
0000
FFF8
FFF8
FFF8
F000
F000
F000
F000
F000
F000
F000
F000
FFF8
FFF8
FFF8
F000
F000
F000
F000
F000
F000
F000
F000
FFF8
FFF8
FFF8
ENDCHAR
STARTCHAR 00CB
ENCODING 203
SWIDTH 518 0
DWIDTH 18 0
BBX 15 32 2 0
BITMAP
3CF0
3CF0
3CF0
3CF0
0000
0000
0000
FFFE
FFFE
FFFE
F000
F000
F000
F000
F000
F000
F000
F000
FFFE
FFFE
FFFE
F000
F000
F000
F000
F000
F000
F000
F000
FFFE
FFFE
FFFE
ENDCHAR
STARTCHAR 00CC
ENCODING 204
SWIDTH 259 0
DWIDTH 9 0
BBX 9 33 -2 1
BITMAP
6000
F800
FE00
3F80
0F80
0380
0000
0000
0780
0780
0780
0780
0780
0780
0780
0780
0780
0780
0780
0780
0780
0780
0780
0780
0780
0780
0780
0780
0780
0780
0780
0780
0780
ENDCHAR
STARTCHAR 00CD
ENCODING 205
SWIDTH 259 0
DWIDTH 9 0
BBX 9 34 2 0
BITMAP
0100
0700
0F80
3F00
FC00
7000
2000
0000
0000
7800
7800
7800
7800
7800
7800
7800
7800
7800
7800
7800
7800
7800
7800
7800
7800
7800
7800
7800
7800
7800
7800
7800
7800
7800
ENDCHAR
STARTCHAR 00CE
ENCODING 206
SWIDTH 259 0
DWIDTH 9 0
BBX 13 32 -2 0
BITMAP
0780
0FC0
1FE0
3CF0
F878
0000
0000
0780
0780
0780
0780
0780
0780
0780
0780
0780
0780
0780
0780
0780
0780
0780
0780
0780
0780
0780
0780
0780
0780
0780
0780
0780
ENDCHAR
STARTCHAR 00CF
ENCODING 207
SWIDTH 259 0
DWIDTH 9 0
BBX 10 32 0 0
BITMAP
F3C0
F3C0
F3C0
F3C0
0000
0000
0000
1E00
1E00
1E00
1E00
1E00
1E00
1E00
1E00
1E00
1E00
1E00
1E00
1E00
1E00
1E00
1E00
1E00
1E00
1E00
1E00
1E00
1E00
1E00
1E00
1E00
ENDCHAR
STARTCHAR 00D0
ENCODING 208
SWIDTH 720 0
DWIDTH 25 0
BBX 24 25 0 0
BITMAP
3FFE00
3FFFC0
3FFFE0
3C0FF0
3C01F8
3C007C
3C003E
3C001E
3C001E
3C001F
3C000F
FFF80F
FFF80F
FFF80F
3C000F
3C000F
3C001E
3C001E
3C003E
3C007C
3C00FC
3C1FF8
3FFFE0
3FFFC0
3FFE00
ENDCHAR
STARTCHAR 00D1
ENCODING 209
SWIDTH 748 0
DWIDTH 26 0
BBX 20 31 3 0
BITMAP
07CC00
0FFE00
043C00
000000
000000
000000
F800F0
F800F0
FC00F0
FC00F0
FE00F0
FE00F0
FF00F0
F780F0
F380F0
F3C0F0
F1C0F0
F1E0F0
F0E0F0
F0F0F0
F070F0
F038F0
F03CF0
F01CF0
F01EF0
F00FF0
F00FF0
F007F0
F007F0
F003F0
F001F0
ENDCHAR
STARTCHAR 00D2
ENCODING 210
SWIDTH 835 0
DWIDTH 29 0
BBX 27 33 1 0
BITMAP
00400000
00700000
00FC0000
007F0000
001F8000
00078000
00030000
00000000
003F8000
01FFF000
07FFFC00
0FF3FE00
1F803F00
3E000F80
3C000780
7C0007C0
780003C0
F80003E0
F00001E0
F00001E0
F00001E0
F00001E0
F00001E0
F80003E0
780003C0
7C0007C0
3C000780
3E000F80
1F803F00
0FF1FE00
07FFFC00
01FFF000
003F8000
ENDCHAR
STARTCHAR 00D3
ENCODING 211
SWIDTH 835 0
DWIDTH 29 0
BBX 27 34 1 0
BITMAP
00004000
0001C000
0007E000
001FC000
003F0000
003C0000
00100000
00000000
00000000
003FC000
01FFF000
07FFFC00
0FF1FE00
1F803F00
3E000F80
3C000780
7C0007C0
780003C0
F80003E0
F00001E0
F00001E0
F00001E0
F00001E0
F00001E0
F80003E0
780003C0
7C0003C0
3C000780
3E000F80
1F803F00
0FF9FE00
07FFFC00
01FFF000
003F8000
ENDCHAR
STARTCHAR 00D4
ENCODING 212
SWIDTH 835 0
DWIDTH 29 0
BBX 27 32 1 0
BITMAP
001F0000
003F8000
007BC000
00F9E000
01F1F000
00000000
00000000
003F8000
01FFF000
07FFFC00
0FF3FE00
1F803F00
3E000F80
3C000780
7C0007C0
780003C0
F80003E0
F00001E0
F00001E0
F00001E0
F00001E0
F00001E0
F80003E0
780003C0
7C0003C0
3C000780
3E000F80
1F803F00
0FF9FE00
07FFFC00
01FFF000
003F8000
ENDCHAR
STARTCHAR 00D5
ENCODING 213
SWIDTH 835 0
DWIDTH 29 0
BBX 27 31 1 0
BITMAP
00FCC000
01FFE000
0087C000
00000000
00000000
00000000
007F8000
01FFF000
07FFFC00
0FF3FE00
1F803F00
3E001F80
3C000780
7C0007C0
780003C0
F80003E0
F00001E0
F00001E0
F00001E0
F00001E0
F00001E0
F80003E0
780003C0
7C0007C0
3C000780
3E000F80
1F803F00
0FF3FE00
07FFF800
01FFF000
007F8000
ENDCHAR
STARTCHAR 00D6
ENCODING 214
SWIDTH 835 0
DWIDTH 29 0
BBX 27 32 1 0
BITMAP
007BC000
007BC000
007BC000
007BC000
00000000
00000000
00000000
003F8000
01FFF000
07FFFC00
0FF3FE00
1F803F00
3E000F80
3C000780
7C0007C0
780003C0
F80003E0
F00001E0
F00001E0
F00001E0
F00001E0
F00001E0
F80003E0
780003C0
7C0003C0
3C000780
3E000F80
1F803F00
0FF9FE00
07FFFC00
01FFF000
003F8000
ENDCHAR
STARTCHAR 00D7
ENCODING 215
SWIDTH 604 0
DWIDTH 21 0
BBX 16 16 2 0
BITMAP
2004
700E
F81F
7C3E
3E7C
1FF8
0FF0
07E0
07E0
0FF0
1FF8
3E7C
7C3E
F81F
700E
2004
ENDCHAR
STARTCHAR 00D8
ENCODING 216
SWIDTH 835 0
DWIDTH 29 0
BBX 27 29 1 -2
BITMAP
00000200
00000700
003F8780
01FFFF00
07FFFF00
0FF1FE00
1F803F00
3E007F80
3C00F780
7C01F7C0
7801E3C0
F803C3E0
F00781E0
F00F81E0
F00F01E0
F01E01E0
F03C01E0
F87803E0
78F803C0
7CF003C0
3DE00780
1FC00F80
1FC03F00
07F9FE00
0FFFFC00
1FFFF000
3C3F8000
1C000000
08000000
ENDCHAR
STARTCHAR 00D9
ENCODING 217
SWIDTH 633 0
DWIDTH 22 0
BBX 18 33 2 1
BITMAP
0C0000
1E0000
1F8000
07E000
01F000
00E000
002000
000000
F003C0
F003C0
F003C0
F003C0
F003C0
F003C0
F003C0
F003C0
F003C0
F003C0
F003C0
F003C0
F003C0
F003C0
F003C0
F003C0
F003C0
F003C0
F003C0
F807C0
7C0F80
7F3F80
3FFF00
0FFC00
03F000
ENDCHAR
STARTCHAR 00DA
ENCODING 218
SWIDTH 633 0
DWIDTH 22 0
BBX 18 34 2 0
BITMAP
000400
001C00
007E00
01FC00
03F000
03C000
010000
000000
000000
F003C0
F003C0
F003C0
F003C0
F003C0
F003C0
F003C0
F003C0
F003C0
F003C0
F003C0
F003C0
F003C0
F003C0
F003C0
F003C0
F003C0
F003C0
F003C0
F807C0
7C0F80
7F3F80
3FFF00
0FFC00
03F000
ENDCHAR
STARTCHAR 00DB
ENCODING 219
SWIDTH 633 0
DWIDTH 22 0
BBX 17 32 2 0
BITMAP
03E000
07F000
0F7800
1F7C00
3E3E00
000000
000000
F00780
F00780
F00780
F00780
F00780
F00780
F00780
F00780
F00780
F00780
F00780
F00780
F00780
F00780
F00780
F00780
F00780
F00780
F00780
F80F80
7C0F00
7F7F00
3FFE00
1FFC00
07E000
ENDCHAR
STARTCHAR 00DC
ENCODING 220
SWIDTH 633 0
DWIDTH 22 0
BBX 18 32 2 0
BITMAP
07BC00
07BC00
07BC00
07BC00
000000
000000
000000
F003C0
F003C0
F003C0
F003C0
F003C0
F003C0
F003C0
F003C0
F003C0
F003C0
F003C0
F003C0
F003C0
F003C0
F003C0
F003C0
F003C0
F003C0
F003C0
F807C0
7C0780
3FBF80
3FFF00
0FFE00
03F000
ENDCHAR
STARTCHAR 00DD
ENCODING 221
SWIDTH 604 0
DWIDTH 21 0
BBX 19 34 0 0
BITMAP
000200
000E00
003F00
00FE00
01F800
01E000
008000
000000
000000
F801E0
7801E0
7C03C0
3C03C0
3E0780
1E0780
1E0F00
0F0F00
0F0F00
079E00
079E00
03FC00
03FC00
01F800
01F800
00F000
00F000
00F000
00F000
00F000
00F000
00F000
00F000
00F000
00F000
ENDCHAR
STARTCHAR 00DE
ENCODING 222
SWIDTH 547 0
DWIDTH 19 0
BBX 17 25 2 0
BITMAP
F00000
F00000
F00000
F00000
F00000
FFF000
FFFC00
FFFE00
F03F00
F00F00
F00780
F00780
F00780
F00780
F00780
F00F00
F03F00
FFFE00
FFFC00
FFF000
F00000
F00000
F00000
F00000
F00000
ENDCHAR
STARTCHAR 00DF
ENCODING 223
SWIDTH 633 0
DWIDTH 22 0
BBX 20 25 2 0
BITMAP
07E000
1FF800
3FFC00
7E7E00
781E00
F00F00
F00F00
F00F00
F00F00
F01F00
F03E00
F0FC00
F0FF80
F0FFC0
F007E0
F001F0
F000F0
F000F0
FE00F0
FE00F0
FF01E0
FFC7E0
F7FFC0
F3FF80
F0FC00
ENDCHAR
STARTCHAR 00E0
ENCODING 224
SWIDTH 691 0
DWIDTH 24 0
BBX 21 27 1 1
BITMAP
018000
03E000
01F800
00FC00
003E00
000C00
000000
000000
01FC78
07FE78
1FFF78
3F8FF8
3E01F8
7C00F8
7800F8
F00078
F00078
F00078
F00078
F00078
F800F8
7C00F8
7E03F8
3F8FF8
1FFF78
07FE78
01F878
ENDCHAR
STARTCHAR 00E1
ENCODING 225
SWIDTH 691 0
DWIDTH 24 0
BBX 21 28 1 0
BITMAP
000200
000E00
003F00
007E00
01F800
00E000
008000
000000
000000
01F878
07FE78
1FFF78
3F8FF8
3E03F8
7800F8
7800F8
F00078
F00078
F00078
F00078
F00078
F800F8
7C00F8
7E03F8
3F8FF8
1FFF78
07FE78
01F878
ENDCHAR
STARTCHAR 00E2
ENCODING 226
SWIDTH 691 0
DWIDTH 24 0
BBX 20 27 1 0
BITMAP
00F000
01F800
03FC00
079E00
0F0F00
000000
000000
000000
01F8F0
0FFCF0
1FFEF0
3F1FF0
7C03F0
7801F0
7801F0
F000F0
F000F0
F000F0
F000F0
F000F0
F801F0
7801F0
7C03F0
3F1FF0
1FFEF0
0FFCF0
03F0F0
ENDCHAR
STARTCHAR 00E3
ENCODING 227
SWIDTH 691 0
DWIDTH 24 0
BBX 21 25 1 0
BITMAP
03E100
07FF80
07FF80
020E00
000000
000000
01FC78
07FE78
1FFF78
3F8FF8
3E03F8
7800F8
7800F8
F00078
F00078
F00078
F00078
F00078
F800F8
7C00F8
7E03F8
3F8FF8
1FFF78
07FE78
01F878
ENDCHAR
STARTCHAR 00E4
ENCODING 228
SWIDTH 691 0
DWIDTH 24 0
BBX 21 26 1 0
BITMAP
03CF00
03CF00
03CF00
03CF00
000000
000000
000000
01FC78
07FE78
1FFF78
3F8FF8
3E03F8
7800F8
7800F8
F00078
F00078
F00078
F00078
F00078
F800F8
7C00F8
7E03F8
3F8FF8
1FFF78
07FE78
01F878
ENDCHAR
STARTCHAR 00E5
ENCODING 229
SWIDTH 691 0
DWIDTH 24 0
BBX 21 28 1 1
BITMAP
007800
00FC00
01CE00
018600
01CE00
00FC00
007800
000000
000000
01FC78
07FE78
1FFF78
3F8FF8
3E03F8
7800F8
7800F8
F00078
F00078
F00078
F00078
F00078
F800F8
7C00F8
7E03F8
3F8FF8
1FFF78
07FE78
01F878
ENDCHAR
STARTCHAR 00E6
ENCODING 230
SWIDTH 1123 0
DWIDTH 39 0
BBX 37 19 1 0
BITMAP
01FC78FE00
07FF7BFF80
1FFFFFFFC0
3F8FFFC7E0
3C03FE01F0
7801FC00F0
7800FC0078
F000780078
F000780078
F0007FFFF8
F0007FFFF8
F000780000
7800FC0000
7800FC00F0
3E01FE01E0
3F8FFFC7E0
1FFFFFFFC0
07FF7BFF00
01FC78FC00
ENDCHAR
STARTCHAR 00E7
ENCODING 231
SWIDTH 633 0
DWIDTH 22 0
BBX 19 28 1 -9
BITMAP
01F800
07FE00
1FFF80
3F1FC0
3C03C0
7801E0
7801E0
F00000
F00000
F00000
F00000
F00000
F80000
7801E0
7C03C0
3F0FC0
1FFF80
0FFE00
03F800
00C000
00C000
00F000
00F800
001800
001800
019800
01F000
00E000
ENDCHAR
STARTCHAR 00E8
ENCODING 232
SWIDTH 633 0
DWIDTH 22 0
BBX 20 27 1 1
BITMAP
030000
07C000
03F000
01F800
007C00
001800
000800
000000
01FC00
07FF00
1FFF80
3F9FC0
7C03E0
7801E0
F000F0
F000F0
FFFFF0
FFFFF0
FFFFF0
F00000
780000
7801E0
3C03C0
3F8FC0
1FFF80
07FE00
01F800
ENDCHAR
STARTCHAR 00E9
ENCODING 233
SWIDTH 633 0
DWIDTH 22 0
BBX 20 28 1 0
BITMAP
000400
001C00
007E00
00FC00
03F000
01C000
010000
000000
000000
01F800
07FF00
1FFF80
3F1FC0
7C03E0
7801E0
F000F0
F000F0
FFFFF0
FFFFF0
FFFFF0
F00000
780000
7801E0
3C03C0
3F0FC0
1FFF80
07FE00
01F800
ENDCHAR
STARTCHAR 00EA
ENCODING 234
SWIDTH 633 0
DWIDTH 22 0
BBX 20 27 1 0
BITMAP
00F000
01F800
03FC00
079E00
1F0F00
000000
000000
000000
01F800
07FF00
1FFF80
3F9FC0
7C03E0
7801E0
F000F0
F000F0
FFFFF0
FFFFF0
FFFFF0
F00000
780000
7801E0
3C03C0
3F8FC0
1FFF80
07FE00
01F800
ENDCHAR
STARTCHAR 00EB
ENCODING 235
SWIDTH 633 0
DWIDTH 22 0
BBX 20 26 1 0
BITMAP
03DE00
03DE00
03DE00
03DE00
000000
000000
000000
01FC00
07FF00
1FFF80
3F8FC0
3C03E0
7801E0
7000F0
F000F0
FFFFF0
FFFFF0
FFFFF0
F00000
780000
7801E0
3E03E0
3F8FC0
1FFF80
07FF00
01F800
ENDCHAR
STARTCHAR 00EC
ENCODING 236
SWIDTH 230 0
DWIDTH 8 0
BBX 10 28 -3 0
BITMAP
4000
7000
FC00
3F00
1FC0
0780
0100
0000
0000
0780
0780
0780
0780
0780
0780
0780
0780
0780
0780
0780
0780
0780
0780
0780
0780
0780
0780
0780
ENDCHAR
STARTCHAR 00ED
ENCODING 237
SWIDTH 230 0
DWIDTH 8 0
BBX 9 28 2 0
BITMAP
0100
0700
0F80
3F00
FC00
7000
6000
0000
0000
7800
7800
7800
7800
7800
7800
7800
7800
7800
7800
7800
7800
7800
7800
7800
7800
7800
7800
7800
ENDCHAR
STARTCHAR 00EE
ENCODING 238
SWIDTH 230 0
DWIDTH 8 0
BBX 13 27 -2 0
BITMAP
0780
0FC0
1FE0
3CF0
F878
0000
0000
0000
0780
0780
0780
0780
0780
0780
0780
0780
0780
0780
0780
0780
0780
0780
0780
0780
0780
0780
0780
ENDCHAR
STARTCHAR 00EF
ENCODING 239
SWIDTH 230 0
DWIDTH 8 0
BBX 10 26 0 0
BITMAP
F3C0
F3C0
F3C0
F3C0
0000
0000
0000
1E00
1E00
1E00
1E00
1E00
1E00
1E00
1E00
1E00
1E00
1E00
1E00
1E00
1E00
1E00
1E00
1E00
1E00
1E00
ENDCHAR
STARTCHAR 00F0
ENCODING 240
SWIDTH 662 0
DWIDTH 23 0
BBX 21 25 1 0
BITMAP
038300
0FFF80
01FE00
0FFE00
3F9F00
0C0F80
01FFC0
07FFE0
1FFFE0
3F8FF0
3E01F0
7C00F8
7800F8
F00078
F00078
F00078
F00078
F00078
7800F0
7C00F0
3E03E0
3F8FE0
1FFFC0
07FF00
01FC00
ENDCHAR
STARTCHAR 00F1
ENCODING 241
SWIDTH 633 0
DWIDTH 22 0
BBX 17 25 2 0
BITMAP
0F8800
1FFC00
1FFC00
083000
000000
000000
F3F000
F7FC00
FFFE00
FE3F00
F80F00
F80F80
F00780
F00780
F00780
F00780
F00780
F00780
F00780
F00780
F00780
F00780
F00780
F00780
F00780
ENDCHAR
STARTCHAR 00F2
ENCODING 242
SWIDTH 662 0
DWIDTH 23 0
BBX 21 27 1 1
BITMAP
030000
07C000
03F000
01FC00
007C00
001800
000000
000000
01FC00
07FF00
1FFFC0
3F8FE0
3E03E0
7801F0
7800F8
F00078
F00078
F00078
F00078
F00078
7800F0
7C01F0
3E03E0
3F8FE0
1FFF80
07FF00
01FC00
ENDCHAR
STARTCHAR 00F3
ENCODING 243
SWIDTH 662 0
DWIDTH 23 0
BBX 21 28 1 0
BITMAP
000200
000E00
003F00
00FE00
01F800
01E000
008000
000000
000000
01FC00
07FF00
0FFFC0
3F8FE0
3E03F0
7C00F0
7800F8
F00078
F00078
F00078
F00078
F00078
7800F0
7C00F0
3E01E0
3F8FE0
1FFFC0
07FF00
01FC00
ENDCHAR
STARTCHAR 00F4
ENCODING 244
SWIDTH 662 0
DWIDTH 23 0
BBX 21 27 1 0
BITMAP
00F800
01FC00
03DE00
07CF00
0F8F80
000000
000000
000000
01FC00
07FF00
1FFFC0
3F8FE0
3E03F0
7C01F0
7800F8
F00078
F00078
F00078
F00078
F00078
7800F0
7C00F0
3E03E0
3F8FE0
1FFFC0
07FF00
01FC00
ENDCHAR
STARTCHAR 00F5
ENCODING 245
SWIDTH 662 0
DWIDTH 23 0
BBX 21 25 1 0
BITMAP
03C200
0FFF00
07FF00
001C00
000000
000000
01FC00
07FF00
1FFFC0
3F8FE0
3C03E0
7801F0
7800F8
F00078
F00078
F00078
F00078
F00078
7800F0
7C01F0
3E03E0
3F8FC0
1FFF80
07FF00
01FC00
ENDCHAR
STARTCHAR 00F6
ENCODING 246
SWIDTH 662 0
DWIDTH 23 0
BBX 21 26 1 0
BITMAP
03DE00
03DE00
03DE00
03DE00
000000
000000
000000
01FC00
07FF00
1FFFC0
3F8FE0
3E03F0
7C01F0
7800F8
F00078
F00078
F00078
F00078
F00078
7800F0
7C00F0
3E03E0
3F8FE0
1FFFC0
07FF00
01FC00
ENDCHAR
STARTCHAR 00F7
ENCODING 247
SWIDTH 604 0
DWIDTH 21 0
BBX 18 17 1 0
BITMAP
01E000
01E000
01E000
000000
000000
000000
000000
FFFFC0
FFFFC0
FFFFC0
000000
000000
000000
01E000
01E000
01E000
01E000
ENDCHAR
STARTCHAR 00F8
ENCODING 248
SWIDTH 662 0
DWIDTH 23 0
BBX 21 23 1 -2
BITMAP
000080
0001C0
01FDE0
07FFC0
1FFF80
3F8FC0
3E0FE0
7C1FF0
781CF0
F03C78
F07878
F07078
F0F078
F1E078
79C0F0
7FC0F0
3F83E0
1F8FE0
0FFFC0
1FFF00
3DFC00
1C0000
080000
ENDCHAR
STARTCHAR 00F9
ENCODING 249
SWIDTH 633 0
DWIDTH 22 0
BBX 17 28 2 0
BITMAP
080000
0E0000
1F0000
0FC000
03E000
01E000
004000
000000
000000
F00780
F00780
F00780
F00780
F00780
F00780
F00780
F00780
F00780
F00780
F00780
F00780
F00780
F80F80
780F80
7E3F80
3FFF80
1FF780
07E780
ENDCHAR
STARTCHAR 00FA
ENCODING 250
SWIDTH 633 0
DWIDTH 22 0
BBX 18 28 2 0
BITMAP
000400
001C00
007E00
00FC00
03F000
01C000
010000
000000
000000
F003C0
F003C0
F003C0
F003C0
F003C0
F003C0
F003C0
F003C0
F003C0
F003C0
F003C0
F003C0
F003C0
F807C0
780FC0
7E3FC0
3FFFC0
1FFBC0
07E3C0
ENDCHAR
STARTCHAR 00FB
ENCODING 251
SWIDTH 633 0
DWIDTH 22 0
BBX 17 27 2 0
BITMAP
03E000
07F000
0FF800
1F7C00
3E3E00
000000
000000
000000
F00780
F00780
F00780
F00780
F00780
F00780
F00780
F00780
F00780
F00780
F00780
F00780
F00780
F80F80
780F80
7E3F80
3FFF80
1FF780
07E780
ENDCHAR
STARTCHAR 00FC
ENCODING 252
SWIDTH 633 0
DWIDTH 22 0
BBX 17 26 2 0
BITMAP
0F3C00
0F3C00
0F3C00
0F3C00
000000
000000
000000
F00780
F00780
F00780
F00780
F00780
F00780
F00780
F00780
F00780
F00780
F00780
F00780
F00780
F80F80
780F80
7E3F80
3FFF80
1FF780
07E780
ENDCHAR
STARTCHAR 00FD
ENCODING 253
SWIDTH 576 0
DWIDTH 20 0
BBX 19 34 0 -6
BITMAP
000200
000E00
003F00
00FE00
01F800
01E000
008000
000000
000000
F001E0
7001C0
7803C0
7803C0
3C0380
3C0780
1C0700
1E0F00
1E0E00
0F0E00
0F1E00
071C00
07BC00
03B800
03F800
03F800
01F000
01F000
00E000
01E000
01C000
03C000
03C000
078000
078000
ENDCHAR
STARTCHAR 00FE
ENCODING 254
SWIDTH 691 0
DWIDTH 24 0
BBX 21 31 2 -6
BITMAP
F00000
F00000
F00000
F00000
F00000
F00000
F0FC00
F3FF80
F7FFC0
FF8FE0
FE03F0
F801F0
F800F0
F00078
F00078
F00078
F00078
F00078
F800F8
FC00F0
FE01F0
FF8FE0
F7FFC0
F3FF00
F0FC00
F00000
F00000
F00000
F00000
F00000
F00000
ENDCHAR
STARTCHAR 00FF
ENCODING 255
SWIDTH 576 0
DWIDTH 20 0
BBX 19 32 0 -6
BITMAP
07BC00
07BC00
07BC00
07BC00
000000
000000
000000
F001E0
7001C0
7803C0
7803C0
3C0780
3C0780
1C0700
1E0F00
1E0F00
0F1E00
0F1E00
071C00
07BC00
03B800
03F800
03F800
01F000
01F000
00E000
01E000
01E000
03C000
03C000
078000
078000
ENDCHAR
STARTCHAR 0131
ENCODING 305
SWIDTH 230 0
DWIDTH 8 0
BBX 4 19 2 0
BITMAP
F0
F0
F0
F0
F0
F0
F0
F0
F0
F0
F0
F0
F0
F0
F0
F0
F0
F0
F0
ENDCHAR
STARTCHAR 0141
ENCODING 321
SWIDTH 432 0
DWIDTH 15 0
BBX 16 25 0 0
BITMAP
1E00
1E00
1E00
1E00
1E00
1E00
1E30
1E70
1FF0
1FE0
1FC0
3F00
7E00
FE00
FE00
DE00
1E00
1E00
1E00
1E00
1E00
1E00
1FFF
1FFF
1FFF
ENDCHAR
STARTCHAR 0142
ENCODING 322
SWIDTH 288 0
DWIDTH 10 0
BBX 9 25 1 0
BITMAP
3C00
3C00
3C00
3C00
3C00
3C00
3C00
3C80
3F80
3F80
3F00
7E00
FC00
FC00
FC00
3C00
3C00
3C00
3C00
3C00
3C00
3C00
3C00
3C00
3C00
ENDCHAR
STARTCHAR 0152
ENCODING 338
SWIDTH 1094 0
DWIDTH 38 0
BBX 35 25 1 0
BITMAP
003FC1FFE0
01FFF1FFE0
07FFFDFFE0
0FF1FFE000
1F803FE000
3E000FE000
3C0007E000
7C0007E000
780003E000
780003E000
F00001E000
F00001FFE0
F00001FFE0
F00001FFE0
F00001E000
F80001E000
780003E000
780003E000
3C0007E000
3E000FE000
1F803FE000
0FF1FFE000
07FFFDFFE0
01FFF1FFE0
003FC1FFE0
ENDCHAR
STARTCHAR 0153
ENCODING 339
SWIDTH 1152 0
DWIDTH 40 0
BBX 37 19 1 0
BITMAP
01FC00FC00
07FF03FF80
0FFFC7FFC0
1F8FEF87E0
3E01FE01F0
7C00FC00F0
7800FC0078
F000780078
F000780078
F0007FFFF8
F0007FFFF8
F000780000
7800780000
7C00FC00F0
3E01FE01F0
3F8FCFC7E0
1FFF87FFC0
07FF03FF80
01FC00FC00
ENDCHAR
STARTCHAR 0160
ENCODING 352
SWIDTH 489 0
DWIDTH 17 0
BBX 16 32 1 0
BITMAP
3C1E
1E3C
0F78
07F0
03E0
0000
0000
03F0
0FF8
1FFE
3F7E
7C1F
780F
780F
7800
7C00
3E00
3FC0
1FF8
07FC
01FE
003E
001F
000F
F00F
F00F
F80F
781E
7E7E
3FFC
1FF8
07E0
ENDCHAR
STARTCHAR 0161
ENCODING 353
SWIDTH 432 0
DWIDTH 15 0
BBX 13 27 1 0
BITMAP
78F8
3CF0
1FE0
0FC0
0780
0000
0000
0000
0FC0
1FE0
3FF0
7CF8
78F8
7800
7C00
7F00
3FC0
1FF0
03F0
00F8
0078
F078
F878
7CF8
7FF0
3FE0
0FC0
ENDCHAR
STARTCHAR 0178
ENCODING 376
SWIDTH 604 0
DWIDTH 21 0
BBX 20 32 1 0
BITMAP
079E00
079E00
079E00
079E00
000000
000000
000000
F000F0
7801E0
7801E0
3C03C0
3C03C0
1E0780
1E0780
0F0F00
0F0F00
079E00
079E00
03FC00
03FC00
01F800
01F800
00F000
00F000
00F000
00F000
00F000
00F000
00F000
00F000
00F000
00F000
ENDCHAR
STARTCHAR 017D
ENCODING 381
SWIDTH 460 0
DWIDTH 16 0
BBX 15 32 0 0
BITMAP
3C3E
1E78
0FF0
07E0
03C0
0000
0000
7FFE
7FFE
7FFE
001E
003C
007C
0078
00F8
00F0
01E0
03E0
03C0
07C0
0780
0F00
0F00
1E00
3E00
3C00
7800
7800
F000
FFFE
FFFE
FFFE
ENDCHAR
STARTCHAR 017E
ENCODING 382
SWIDTH 403 0
DWIDTH 14 0
BBX 14 27 0 0
BITMAP
7C3C
3E78
1EF0
0FE0
07C0
0000
0000
0000
7FF8
7FF8
7FF8
0078
00F8
00F0
01E0
03C0
03C0
0780
0F00
1F00
1E00
3C00
7800
7800
FFFC
FFFC
FFFC
ENDCHAR
STARTCHAR 0192
ENCODING 402
SWIDTH 547 0
DWIDTH 19 0
BBX 17 33 1 -4
BITMAP
000380
000F80
001F80
001E00
003C00
003800
007800
007800
03FF00
03FE00
07FE00
00F000
00F000
00E000
00E000
00E000
00E000
01E000
01C000
01C000
01C000
01C000
01C000
03C000
038000
038000
038000
078000
070000
0F0000
FE0000
FC0000
F80000
ENDCHAR
STARTCHAR 02C6
ENCODING 710
SWIDTH 547 0
DWIDTH 19 0
BBX 13 5 3 22
BITMAP
0F80
1FC0
3DE0
7CF0
F8F8
ENDCHAR
STARTCHAR 02C7
ENCODING 711
SWIDTH 547 0
DWIDTH 19 0
BBX 13 5 3 22
BITMAP
F078
78F0
3DE0
1FC0
0F80
ENDCHAR
STARTCHAR 02D8
ENCODING 728
SWIDTH 547 0
DWIDTH 19 0
BBX 13 4 3 20
BITMAP
E038
7070
3FE0
1FC0
ENDCHAR
STARTCHAR 02D9
ENCODING 729
SWIDTH 547 0
DWIDTH 19 0
BBX 4 4 8 22
BITMAP
F0
F0
F0
F0
ENDCHAR
STARTCHAR 02DA
ENCODING 730
SWIDTH 547 0
DWIDTH 19 0
BBX 7 7 6 21
BITMAP
38
7C
C6
C6
C6
7C
38
ENDCHAR
STARTCHAR 02DB
ENCODING 731
SWIDTH 547 0
DWIDTH 19 0
BBX 7 7 6 -6
BITMAP
38
70
60
E0
F2
7E
3E
ENDCHAR
STARTCHAR 02DC
ENCODING 732
SWIDTH 547 0
DWIDTH 19 0
BBX 12 4 3 21
BITMAP
7C60
FFF0
FFF0
01C0
ENDCHAR
STARTCHAR 02DD
ENCODING 733
SWIDTH 547 0
DWIDTH 19 0
BBX 13 5 3 22
BITMAP
0F78
1E70
3CE0
79C0
F3C0
ENDCHAR
STARTCHAR 2013
ENCODING 8211
SWIDTH 489 0
DWIDTH 17 0
BBX 15 3 1 8
BITMAP
FFFE
FFFE
FFFE
ENDCHAR
STARTCHAR 2014
ENCODING 8212
SWIDTH 1008 0
DWIDTH 35 0
BBX 32 3 1 8
BITMAP
FFFFFFFF
FFFFFFFF
FFFFFFFF
ENDCHAR
STARTCHAR 2018
ENCODING 8216
SWIDTH 288 0
DWIDTH 10 0
BBX 4 9 3 16
BITMAP
30
70
E0
E0
F0
F0
F0
F0
F0
ENDCHAR
STARTCHAR 2019
ENCODING 8217
SWIDTH 288 0
DWIDTH 10 0
BBX 4 8 3 16
BITMAP
F0
F0
F0
F0
70
70
E0
E0
ENDCHAR
STARTCHAR 201A
ENCODING 8218
SWIDTH 288 0
DWIDTH 10 0
BBX 4 9 3 -4
BITMAP
F0
F0
F0
F0
F0
70
70
E0
C0
ENDCHAR
STARTCHAR 201C
ENCODING 8220
SWIDTH 432 0
DWIDTH 15 0
BBX 9 9 3 16
BITMAP
3180
7380
E700
E700
F780
F780
F780
F780
F780
ENDCHAR
STARTCHAR 201D
ENCODING 8221
SWIDTH 432 0
DWIDTH 15 0
BBX 9 8 3 16
BITMAP
F780
F780
F780
F780
7380
7380
E700
E700
ENDCHAR
STARTCHAR 201E
ENCODING 8222
SWIDTH 432 0
DWIDTH 15 0
BBX 9 9 3 -4
BITMAP
F780
F780
F780
F780
F780
7380
7380
E700
C600
ENDCHAR
STARTCHAR 2020
ENCODING 8224
SWIDTH 576 0
DWIDTH 20 0
BBX 16 32 2 -8
BITMAP
03C0
03C0
03C0
03C0
03C0
03C0
FFFF
FFFF
FFFF
03C0
03C0
03C0
03C0
03C0
03C0
03C0
03C0
03C0
03C0
03C0
03C0
03C0
03C0
03C0
03C0
03C0
03C0
03C0
03C0
03C0
03C0
03C0
ENDCHAR
STARTCHAR 2021
ENCODING 8225
SWIDTH 576 0
DWIDTH 20 0
BBX 16 33 2 -8
BITMAP
03C0
03C0
03C0
03C0
03C0
FFFF
FFFF
FFFF
03C0
03C0
03C0
03C0
03C0
03C0
03C0
03C0
03C0
03C0
03C0
03C0
03C0
FFFF
FFFF
FFFF
03C0
03C0
03C0
03C0
03C0
03C0
03C0
03C0
03C0
ENDCHAR
STARTCHAR 2022
ENCODING 8226
SWIDTH 604 0
DWIDTH 21 0
BBX 10 11 5 8
BITMAP
1E00
3F00
7F80
FFC0
FFC0
FFC0
FFC0
FFC0
7F80
3F00
1E00
ENDCHAR
STARTCHAR 2026
ENCODING 8230
SWIDTH 1008 0
DWIDTH 35 0
BBX 27 4 4 1
BITMAP
F01E01E0
F01E01E0
F01E01E0
F01E01E0
ENDCHAR
STARTCHAR 2030
ENCODING 8240
SWIDTH 1238 0
DWIDTH 43 0
BBX 39 25 2 0
BITMAP
0F80380000
3FE0300000
7FF0600000
78F0600000
F078C00000
F078C00000
F079800000
F07B800000
78F3000000
7FF6000000
3FE6000000
0F8C000000
000C000000
0018FC03E0
001BFF0FF8
0037FF9FFC
0067879E3C
006F03FC1E
00CF03FC1E
00CF03FC1E
018F03FC1E
0187879E3C
0307FF9FFC
0203FF0FF8
0600FC03E0
ENDCHAR
STARTCHAR 2039
ENCODING 8249
SWIDTH 201 0
DWIDTH 7 0
BBX 5 13 1 4
BITMAP
08
18
38
78
F0
E0
C0
E0
F0
78
38
18
08
ENDCHAR
STARTCHAR 203A
ENCODING 8250
SWIDTH 201 0
DWIDTH 7 0
BBX 5 12 1 5
BITMAP
80
C0
F0
F8
78
18
38
78
F0
E0
C0
80
ENDCHAR
STARTCHAR 2044
ENCODING 8260
SWIDTH 172 0
DWIDTH 6 0
BBX 13 25 -3 0
BITMAP
0038
0030
0070
0070
0060
00E0
00C0
01C0
0180
0180
0380
0300
0700
0600
0E00
0C00
0C00
1C00
1800
3800
3000
3000
7000
6000
E000
ENDCHAR
STARTCHAR 2122
ENCODING 8482
SWIDTH 979 0
DWIDTH 34 0
BBX 31 14 0 10
BITMAP
FFF3F07E
FFF3F07E
FFF3F07E
0F03F8FE
0F03F8FE
0F03D8DE
0F03DDDE
0F03DDDE
0F03CD9E
0F03CF9E
0F03CF9E
0F03CF1E
0F03C71E
0F03C71E
ENDCHAR
STARTCHAR 2212
ENCODING 8722
SWIDTH 604 0
DWIDTH 21 0
BBX 17 3 2 7
BITMAP
FFFF80
FFFF80
FFFF80
ENDCHAR
STARTCHAR FB01
ENCODING 64257
SWIDTH 489 0
DWIDTH 17 0
BBX 15 25 0 0
BITMAP
039E
0F9E
1F9E
3F1E
3C00
3C00
FFFE
FFFE
FFFE
3C1E
3C1E
3C1E
3C1E
3C1E
3C1E
3C1E
3C1E
3C1E
3C1E
3C1E
3C1E
3C1E
3C1E
3C1E
3C1E
ENDCHAR
STARTCHAR FB02
ENCODING 64258
SWIDTH 489 0
DWIDTH 17 0
BBX 15 25 0 0
BITMAP
039E
0F9E
1F9E
3F1E
3C1E
3C1E
FFFE
FFFE
FFFE
3C1E
3C1E
3C1E
3C1E
3C1E
3C1E
3C1E
3C1E
3C1E
3C1E
3C1E
3C1E
3C1E
3C1E
3C1E
3C1E
ENDCHAR
ENDFONT
